<?xml version="1.0" standalone="no"?>
<!DOCTYPE svg PUBLIC "-//W3C//DTD SVG 20010904//EN"
 "http://www.w3.org/TR/2001/REC-SVG-20010904/DTD/svg10.dtd">
<svg version="1.0" xmlns="http://www.w3.org/2000/svg"
 width="150.000000pt" height="65.000000pt" viewBox="0 0 150.000000 65.000000"
 preserveAspectRatio="xMidYMid meet">

<g transform="translate(0.000000,65.000000) scale(0.100000,-0.100000)"
fill="#000000" stroke="none">
<path d="M178 412 c-31 -86 -73 -201 -92 -255 l-36 -97 45 0 44 0 17 55 18 55
67 0 c74 0 71 2 85 -72 6 -37 7 -38 49 -38 36 0 42 3 39 18 -6 28 -84 476 -84
484 0 5 -21 8 -47 8 l-48 0 -57 -158z m107 -86 c8 -43 15 -82 15 -87 0 -5 -23
-9 -51 -9 -41 0 -50 3 -46 14 3 8 18 49 33 91 15 41 29 74 31 72 2 -2 10 -39
18 -81z"/>
<path d="M695 558 c-2 -7 -43 -118 -90 -247 -47 -128 -85 -237 -85 -242 0 -5
18 -9 39 -9 28 0 41 5 46 17 22 57 175 482 175 487 0 12 -81 6 -85 -6z"/>
<path d="M875 558 c-3 -7 -43 -119 -90 -248 -47 -129 -85 -238 -85 -243 0 -4
19 -7 41 -5 l42 3 88 244 c49 135 89 248 89 253 0 13 -80 9 -85 -4z"/>
<path d="M1113 428 c-29 -79 -70 -194 -92 -256 l-40 -112 42 0 42 0 54 148
c29 81 71 195 92 255 l39 107 -43 0 -43 0 -51 -142z"/>
<path d="M1265 323 c-49 -136 -91 -250 -93 -255 -2 -4 16 -8 40 -8 l43 0 57
158 c31 86 73 201 92 255 l36 97 -43 0 -42 0 -90 -247z"/>
<path d="M963 530 c-50 -122 -49 -113 -18 -289 16 -89 32 -156 35 -149 4 7 17
42 29 78 l23 65 -30 160 c-25 134 -31 156 -39 135z"/>
</g>
</svg>
